<svg id="katman_2" data-name="katman 2" xmlns="http://www.w3.org/2000/svg" viewBox="0 0 412.73 287.64"><defs><style>.cls-1{fill:#fff;}</style></defs><path class="cls-1" d="M85.71,124.27s1.52,3.6,16,4.8l-27.37,19.8s-39.54,12.6-64.63,29.4C9.68,178.27,41.61,142.87,85.71,124.27Z" transform="translate(-0.43 -0.41)"/><path class="cls-1" d="M164.43,107.14C59.1,163.25,2.21,284.3.43,288.05c38.05-106,122.5-165.41,122.5-165.41C15,120,141.93,25,176.62.41,25.69,143.75,164.43,107.14,164.43,107.14Z" transform="translate(-0.43 -0.41)"/><path class="cls-1" d="M179.19,135.39V106h9.07v29.42Z" transform="translate(-0.43 -0.41)"/><path class="cls-1" d="M226.28,111.23v24.16h-9.06V111.23H199.35V106h44.86v5.26Z" transform="translate(-0.43 -0.41)"/><path class="cls-1" d="M255.29,135.39V106h33.37c3.07,0,5.3.46,6.67,1.37a4.8,4.8,0,0,1,2.06,4.34v3.59a4,4,0,0,1-1.73,3.38,10,10,0,0,1-5,1.57,9.64,9.64,0,0,1,5.17,1.81,4.68,4.68,0,0,1,1.83,3.84v3.77a4.62,4.62,0,0,1-2.84,4.34q-2.83,1.43-8.62,1.42Zm29.58-24.63H264.21v7h20.66a7.7,7.7,0,0,0,3.26-.47,1.71,1.71,0,0,0,.9-1.64v-2.79a1.68,1.68,0,0,0-.9-1.62A7.55,7.55,0,0,0,284.87,110.76Zm0,11.85H264.21v7.49h20.66a7,7,0,0,0,3.48-.58,2.29,2.29,0,0,0,.9-2.06v-2.23a2.23,2.23,0,0,0-.9-2,7.17,7.17,0,0,0-3.48-.59Z" transform="translate(-0.43 -0.41)"/><path class="cls-1" d="M315.18,135.39V106H355v5h-30.8v6.57h18v5h-18v7.29H355.4v5.54Z" transform="translate(-0.43 -0.41)"/><path class="cls-1" d="M379.52,117.64c3-.33,5.89-.59,8.75-.76s5.68-.27,8.45-.27q9.43,0,12.93,1.66a6,6,0,0,1,3.5,5.94v4a5.78,5.78,0,0,1-3.22,5.43c-2.16,1.17-5.53,1.75-10.09,1.75H383.37q-7.37,0-10.09-2c-1.82-1.3-2.72-3.67-2.72-7.12V122.4q0-8.22,7.53-12.71t21.23-4.49h1.13a10.26,10.26,0,0,1,1.63.1l5.38,4.73h-2.53q-12.42,0-17.94,1.71T379.52,117.64Zm-.51,4.45a5.84,5.84,0,0,0-.11.73,8.34,8.34,0,0,0,0,1q0,4.26,1.49,5.28c1,.68,3.19,1,6.58,1h10.86a13.91,13.91,0,0,0,5.54-.75,2.82,2.82,0,0,0,1.53-2.78V125a2.77,2.77,0,0,0-1.71-2.79c-1.14-.5-3.43-.74-6.87-.74q-4.15,0-8.49.18t-8.82.51Z" transform="translate(-0.43 -0.41)"/></svg>